<?xml version="1.0" standalone="no"?><!DOCTYPE svg PUBLIC "-//W3C//DTD SVG 1.1//EN" "http://www.w3.org/Graphics/SVG/1.1/DTD/svg11.dtd"><svg t="1544699837790" class="icon" style="" viewBox="0 0 1024 1024" version="1.1" xmlns="http://www.w3.org/2000/svg" p-id="5062" xmlns:xlink="http://www.w3.org/1999/xlink" width="200" height="200"><defs><style type="text/css"></style></defs><path d="M512 341.333333c-93.866667 0-170.666667 76.8-170.666667 170.666667s76.8 170.666667 170.666667 170.666667c93.866667 0 170.666667-76.8 170.666667-170.666667S605.866667 341.333333 512 341.333333zM512 640c-70.4 0-128-57.6-128-128 0-70.4 57.6-128 128-128 70.4 0 128 57.6 128 128C640 582.4 582.4 640 512 640zM512 42.666667C251.733333 42.666667 42.666667 251.733333 42.666667 512s209.066667 469.333333 469.333333 469.333333 469.333333-209.066667 469.333333-469.333333S772.266667 42.666667 512 42.666667zM512 938.666667C277.333333 938.666667 85.333333 746.666667 85.333333 512 85.333333 277.333333 277.333333 85.333333 512 85.333333c234.666667 0 426.666667 192 426.666667 426.666667C938.666667 746.666667 746.666667 938.666667 512 938.666667z" p-id="5063"></path></svg>