<?xml version="1.0" standalone="no"?><!DOCTYPE svg PUBLIC "-//W3C//DTD SVG 1.1//EN" "http://www.w3.org/Graphics/SVG/1.1/DTD/svg11.dtd"><svg t="1544700558876" class="icon" style="" viewBox="0 0 1024 1024" version="1.1" xmlns="http://www.w3.org/2000/svg" p-id="5077" xmlns:xlink="http://www.w3.org/1999/xlink" width="200" height="200"><defs><style type="text/css"></style></defs><path d="M541.696 512l340.992-340.992c4.096-4.096 4.096-8.192 4.096-13.312 0-12.288-8.192-21.504-21.504-21.504-4.096 0-13.312 4.096-13.312 4.096L512 482.304 171.008 141.312c-4.096 0-8.192-4.096-13.312-4.096-12.288 0-21.504 8.192-21.504 21.504 0 4.096 0 13.312 4.096 13.312L482.304 512 141.312 852.992c-4.096 4.096-4.096 8.192-4.096 13.312 0 12.288 8.192 21.504 21.504 21.504 4.096 0 13.312-4.096 13.312-4.096L512 541.696l340.992 340.992c4.096 4.096 8.192 4.096 13.312 4.096 12.288 0 21.504-8.192 21.504-21.504 0-4.096-4.096-13.312-4.096-13.312L541.696 512z" p-id="5078"></path></svg>