<?xml version="1.0" encoding="UTF-8"?>
<svg width="60px" height="60px" viewBox="0 0 60 60" version="1.1" xmlns="http://www.w3.org/2000/svg" xmlns:xlink="http://www.w3.org/1999/xlink">
    <!-- Generator: Sketch 51.2 (57519) - http://www.bohemiancoding.com/sketch -->
    <title>Group 15 Copy</title>
    <desc>Created with Sketch.</desc>
    <defs></defs>
    <g id="Page-2" stroke="none" stroke-width="1" fill="none" fill-rule="evenodd">
        <g id="运维管理" transform="translate(-1377.000000, -369.000000)">
            <g id="数据列表" transform="translate(380.000000, 194.000000)">
                <g id="Group-6-Copy-3" transform="translate(907.000000, 125.000000)">
                    <g id="Group-15-Copy" transform="translate(90.000000, 50.000000)">
                        <circle id="Oval-2-Copy" fill="#0486FE" cx="30" cy="30" r="30"></circle>
                        <g id="用印申请" transform="translate(16.000000, 16.000000)" fill-rule="nonzero">
                            <rect id="Rectangle-path" fill="#000000" opacity="0" x="0" y="0" width="28" height="28"></rect>
                            <path d="M9.11295941,12.2061082 C9.23406129,12.3587168 9.36210248,12.5068763 9.48594653,12.6501672 C9.59048366,12.7711012 9.69860235,12.8961764 9.79983771,13.0210277 C10.1282511,13.4259132 10.1250612,13.6936357 9.78721827,14.0819844 C9.70568156,14.1756089 9.61653399,14.2634414 9.52215398,14.3564503 C9.43364997,14.4436672 9.34215201,14.53385 9.25585853,14.6306644 C9.22258909,14.6680471 9.18873203,14.7052338 9.15484702,14.7425046 C8.99404004,14.9192607 8.82780475,15.1020888 8.70236579,15.3178785 C8.33321207,15.9529079 8.32949061,16.6244526 8.69156512,17.2599297 C9.03061124,17.8548624 9.59557621,18.1693132 10.3253214,18.1693132 L10.3261609,18.1693132 C10.8948753,18.1691733 11.4635057,18.1690613 12.0320243,18.1690613 L14.3839137,18.1691733 L14.6021377,18.1682499 C14.852456,18.1683059 15.1028582,18.1684457 15.3532045,18.1685577 C15.6764973,18.1687535 15.9997621,18.1689214 16.3231389,18.1689214 C17.1892357,18.1689214 17.8504554,18.1676343 18.4671293,18.1648082 C18.6771269,18.1638569 18.8843544,18.1335254 19.0664269,18.0771437 C19.6345258,17.9012549 20.0676441,17.4723617 20.2546973,16.9004295 C20.4485219,16.3078472 20.3381367,15.6494536 19.9595254,15.1391916 C19.7778166,14.8942457 19.5629503,14.6778964 19.3551632,14.4686542 C19.2718916,14.3847951 19.185794,14.2980818 19.1045091,14.2120961 C18.617975,13.6971613 18.6125466,13.4397918 19.0769478,12.9008492 C19.3800383,12.5490997 19.6743987,12.2024427 19.94394,11.8290079 C21.0956671,10.2342571 21.49546,8.49898563 21.1322943,6.6713208 C20.8694125,5.34874151 20.3442646,4.22768158 19.5713726,3.33925594 C18.7876519,2.43837874 17.746198,1.77329767 16.4759153,1.36245222 C15.7201757,1.11798198 14.9712355,0.994026004 14.2498566,0.994026004 C12.5709388,0.994026004 11.0217972,1.65113249 9.64543836,2.94710183 C8.07687784,4.42394053 7.37682047,6.31509432 7.56474108,8.56804282 C7.67073325,9.83650686 8.17716189,11.02654 9.11295941,12.2061082 Z M10.6500972,4.01421437 C11.2043175,3.49245211 11.792059,3.09702422 12.3969529,2.83889922 C12.9868489,2.58718187 13.6102383,2.45956041 14.2498846,2.45956041 C14.8176756,2.45956041 15.4149027,2.5595926 16.0249451,2.75688684 C17.0381381,3.08465661 17.8592694,3.60423634 18.4655624,4.30121579 C19.0686934,4.99433386 19.4822531,5.88785206 19.6948249,6.95692323 C19.8366887,7.67147475 19.8283504,8.37178396 19.6700337,9.03843196 C19.5139276,9.69665769 19.2063321,10.3467969 18.7557816,10.9708298 C18.5191181,11.2986555 18.2474502,11.6182269 17.9666047,11.944038 C17.010437,13.0537096 17.0348644,14.1554066 18.0391035,15.2184059 C18.1311891,15.3160038 18.2222953,15.4078095 18.3103796,15.4965374 L18.3160318,15.5022175 C18.4944948,15.6818837 18.6630525,15.8515327 18.7825874,16.0125915 C18.9206738,16.1985814 18.8838788,16.3769045 18.8616898,16.4448144 C18.834884,16.5267149 18.7734936,16.6334905 18.6336724,16.6768052 C18.5883711,16.6907117 18.5253579,16.6987703 18.4604139,16.6989662 C17.6550079,16.7027156 16.8549184,16.7031353 16.3231669,16.7031353 L15.3541559,16.7028276 C15.0306113,16.7025757 14.7072625,16.7025757 14.383606,16.7025757 L13.4149867,16.7033592 L12.0320523,16.7033592 C11.463198,16.7033592 10.8945116,16.7033592 10.3253494,16.703667 C10.0615443,16.703667 10.0167746,16.6251522 9.96500974,16.5343538 C9.86220744,16.3537642 9.8632987,16.2371393 9.96951468,16.0543672 C10.0169425,15.9728305 10.1296501,15.8489305 10.2388041,15.7289199 L10.2446242,15.7225122 C10.2799082,15.6836466 10.3151923,15.6447809 10.3505883,15.6052437 C10.405655,15.5432098 10.4794689,15.470571 10.5509325,15.4002827 C10.6501532,15.3026009 10.7736335,15.1809953 10.8928047,15.0440002 C11.6938176,14.1235923 11.7102984,13.0497364 10.9381619,12.0978497 C10.8247828,11.9578606 10.7112358,11.8264337 10.6014103,11.6993159 L10.5949187,11.691817 C10.4816515,11.5609497 10.3645508,11.4256335 10.261161,11.2951859 C9.51062582,10.3492033 9.10638389,9.41723918 9.02532285,8.44601767 C8.95120111,7.55664066 9.04751181,6.73609699 9.31156877,6.0071632 C9.57901142,5.26905159 10.0293941,4.59851421 10.6500972,4.01421437 Z M25.4089148,20.843712 C25.4073758,20.2862459 25.222757,19.8078823 24.8748968,19.4603299 C24.5267568,19.1124418 24.0480574,18.9285505 23.4906473,18.9285505 C17.4112372,18.9270395 11.3317151,18.9265079 5.25138154,18.9279908 C4.17290874,18.9279908 3.38625011,19.7077661 3.38090572,20.7822377 C3.37810761,21.3815633 3.37917089,21.9903186 3.38020618,22.5790394 L3.38048599,22.7386152 C3.38059791,22.8095751 3.38507487,22.8793878 3.38938395,22.946934 C3.39145455,22.9791402 3.39358111,23.0120459 3.39525996,23.0459589 L3.40586477,23.2586707 L25.4094743,23.2586707 L25.4094743,23.0348224 C25.4094743,22.8123453 25.4096142,22.591547 25.4097821,22.3719798 C25.4101179,21.8469997 25.4104257,21.3511479 25.4089148,20.843712 Z M4.84660799,20.7893728 C4.84792309,20.5267989 4.98416272,20.3936651 5.25160541,20.3936651 C7.74032205,20.3930775 10.2299901,20.3930775 12.7185948,20.3930775 C16.2058424,20.3930775 19.8300292,20.3933573 23.4903116,20.3941688 C23.5820054,20.3941688 23.749276,20.4075437 23.8387314,20.4968032 C23.9290541,20.5872099 23.9429607,20.7556557 23.9432125,20.8479651 C23.9440799,21.163787 23.9443317,21.4754677 23.9443317,21.7929404 L4.84473338,21.7929404 C4.84459336,21.4006743 4.84518098,21.0845727 4.84660799,20.7893728 Z M4.54435693,24.3491473 L24.2458833,24.3491473 L24.2458833,25.8279726 L4.54435693,25.8279726 L4.54435693,24.3491473 Z" id="Shape" fill="#FFFFFF"></path>
                        </g>
                    </g>
                </g>
            </g>
        </g>
    </g>
</svg>