<?xml version="1.0" encoding="UTF-8"?>
<svg width="60px" height="60px" viewBox="0 0 60 60" version="1.1" xmlns="http://www.w3.org/2000/svg" xmlns:xlink="http://www.w3.org/1999/xlink">
    <!-- Generator: Sketch 51.2 (57519) - http://www.bohemiancoding.com/sketch -->
    <title>Group 15 Copy</title>
    <desc>Created with Sketch.</desc>
    <defs></defs>
    <g id="Page-2" stroke="none" stroke-width="1" fill="none" fill-rule="evenodd">
        <g id="Artboard" transform="translate(-350.000000, -269.000000)">
            <g id="数据列表" transform="translate(220.000000, 114.000000)">
                <g id="Group-6" transform="translate(40.000000, 105.000000)">
                    <g id="Group-15-Copy" transform="translate(90.000000, 50.000000)">
                        <circle id="Oval-2-Copy" fill="#0486FE" cx="30" cy="30" r="30"></circle>
                        <g id="control" transform="translate(17.000000, 16.000000)" fill="#FFFFFF" fill-rule="nonzero">
                            <path d="M24.728,14.364 C24.728,8.08598601 19.642014,3 13.364,3 C7.08598601,3 2,8.08598601 2,14.364 C2,20.642014 7.08598601,25.728 13.364,25.728 C16.3705594,25.728 19.098979,24.5624615 21.1254266,22.6552168 C21.2578741,22.6154825 21.3770769,22.5492587 21.4697902,22.4300559 C21.5492587,22.3505874 21.6022378,22.2578741 21.641972,22.1519161 C23.5492168,20.1122238 24.728,17.3838042 24.728,14.364 Z M12.4766014,24.1783636 C12.4633566,24.1518741 12.4368671,24.1386294 12.4103776,24.1121399 C11.1918601,23.0525594 10.1985035,21.7943077 9.4567972,20.4036084 C10.4501538,19.993021 11.5097343,19.7413706 12.609049,19.6619021 L12.609049,24.1783636 C12.5693147,24.1783636 12.5163357,24.1783636 12.4766014,24.1783636 Z M3.53639161,15.0924615 L6.46348252,15.0924615 C6.54295105,16.6818322 6.88731469,18.2314685 7.47008392,19.6883916 C6.9138042,20.0062657 6.39725874,20.3638741 5.89395804,20.7744615 C4.55623776,19.2248252 3.69532867,17.2513566 3.53639161,15.0924615 Z M5.97342657,7.84758042 C6.46348252,8.24492308 6.98002797,8.58928671 7.50981818,8.90716084 C6.90055944,10.3773287 6.54295105,11.9666993 6.46348252,13.5825594 L3.54963636,13.5825594 C3.72181818,11.3971748 4.60921678,9.41046154 5.97342657,7.84758042 Z M14.2249091,4.54963636 C14.2513986,4.57612587 14.2646434,4.60261538 14.3043776,4.6291049 C15.4831608,5.64895105 16.4632727,6.86746853 17.1917343,8.20518881 C16.2116224,8.60253147 15.1785315,8.84093706 14.118951,8.92040559 L14.118951,4.54963636 C14.1586853,4.54963636 14.1984196,4.54963636 14.2249091,4.54963636 Z M23.1783636,13.5825594 L20.2512727,13.5825594 C20.1585594,11.9666993 19.800951,10.3905734 19.1916923,8.90716084 C19.7347273,8.60253147 20.2512727,8.24492308 20.7413287,7.84758042 C22.1187832,9.41046154 23.0061818,11.3971748 23.1783636,13.5825594 Z M12.609049,13.5825594 L7.98662937,13.5825594 C8.0660979,12.1918601 8.38397203,10.8408951 8.88727273,9.5693986 C10.0660559,10.0594545 11.3243077,10.3508392 12.609049,10.4303077 L12.609049,13.5825594 Z M12.609049,15.0924615 L12.609049,18.1387552 C11.2978182,18.2182238 10.0263217,18.5228531 8.83429371,19.0129091 C8.35748252,17.7679021 8.0660979,16.4434266 7.98662937,15.0924615 L12.609049,15.0924615 Z M14.118951,15.0924615 L18.7281259,15.0924615 C18.6486573,16.4566713 18.3572727,17.7811469 17.8804615,19.0261538 C16.6884336,18.5228531 15.4169371,18.2314685 14.118951,18.1387552 L14.118951,15.0924615 Z M14.118951,13.5825594 L14.118951,10.4303077 C15.4036923,10.3508392 16.6619441,10.0594545 17.8274825,9.58264336 C18.3307832,10.8541399 18.6354126,12.2051049 18.7281259,13.5825594 L14.118951,13.5825594 Z M18.5559441,7.52970629 C18.1056224,6.70853147 17.5890769,5.92709091 16.9798182,5.19862937 C17.9599301,5.58272727 18.8605734,6.12576224 19.6552587,6.788 C19.2976503,7.06613986 18.9267972,7.31779021 18.5559441,7.52970629 Z M12.609049,4.53639161 L12.609049,8.90716084 C11.5494685,8.82769231 10.5031329,8.58928671 9.53626573,8.19194406 C10.2647273,6.85422378 11.2315944,5.64895105 12.4103776,4.6291049 C12.4368671,4.60261538 12.4766014,4.56288112 12.5030909,4.53639161 C12.5295804,4.54963636 12.5693147,4.54963636 12.609049,4.53639161 Z M8.17205594,7.52970629 C7.78795804,7.30454545 7.43034965,7.0528951 7.07274126,6.788 C7.86742657,6.12576224 8.76806993,5.59597203 9.73493706,5.21187413 C9.13892308,5.92709091 8.60913287,6.70853147 8.17205594,7.52970629 Z M8.10583217,21.0790909 C8.55615385,21.94 9.09918881,22.7611748 9.72169231,23.5161259 C8.71509091,23.1187832 7.78795804,22.5492587 6.96678322,21.8605315 C7.33763636,21.5691469 7.72173427,21.3174965 8.10583217,21.0790909 Z M14.118951,24.1916084 L14.118951,19.6751469 C15.205021,19.7546154 16.2646014,20.0062657 17.257958,20.4168531 C16.5162517,21.8075524 15.5228951,23.0658042 14.3043776,24.1253846 C14.2778881,24.1518741 14.2646434,24.1651189 14.2381538,24.1916084 C14.1984196,24.1783636 14.1586853,24.1783636 14.118951,24.1916084 Z M18.6089231,21.0923357 C18.993021,21.3307413 19.3771189,21.5823916 19.7347273,21.8737762 C18.9267972,22.5625035 17.9996643,23.1187832 16.9930629,23.5161259 C17.6155664,22.7744196 18.1586014,21.9532448 18.6089231,21.0923357 Z M19.2579161,19.7016364 C19.8406853,18.2447133 20.185049,16.6818322 20.2645175,15.0924615 L23.1916084,15.0924615 C23.0326713,17.2646014 22.1585175,19.2380699 20.8207972,20.800951 C20.3174965,20.3903636 19.800951,20.0195105 19.2579161,19.7016364 Z" id="Shape"></path>
                        </g>
                    </g>
                </g>
            </g>
        </g>
    </g>
</svg>