<?xml version="1.0" encoding="utf-8"?>
<!-- Generator: Adobe Illustrator 22.1.0, SVG Export Plug-In . SVG Version: 6.00 Build 0)  -->
<svg version="1.1" id="图层_1" xmlns="http://www.w3.org/2000/svg" xmlns:xlink="http://www.w3.org/1999/xlink" x="0px" y="0px"
	 viewBox="0 0 15 15" style="enable-background:new 0 0 15 15;" xml:space="preserve">
<style type="text/css">
	.st0{fill-opacity:0;}
	.st1{fill:#909090;}
	.st2{display:none;fill:#909090;}
</style>
<title>数据@1x</title>
<desc>Created with Sketch.</desc>
<g id="Page-1">
	<g id="数据" transform="translate(0.000000, 3.000000)">
		<rect id="矩形" y="-3" class="st0" width="14.5" height="14.8"/>
		<path id="形状" class="st1" d="M5.4,2C5.3,2,5.2,2.1,5.2,2.2v8.5c0,0.1,0.1,0.2,0.2,0.2c0.1,0,0.2-0.1,0.2-0.2V2.2
			C5.6,2.1,5.5,2,5.4,2z M1.3,5.5C1.1,5.5,1,5.6,1,5.8v5C1,10.9,1.1,11,1.3,11s0.2-0.1,0.2-0.2v-5C1.5,5.6,1.4,5.5,1.3,5.5z
			 M13.7,2.7c-0.1,0-0.2,0.1-0.2,0.2v7.9c0,0.1,0.1,0.2,0.2,0.2c0.1,0,0.2-0.1,0.2-0.2V2.9C13.9,2.8,13.8,2.7,13.7,2.7z M13.6,0
			c0.1,0,0.2-0.1,0.2-0.2l0-1.5c0-0.1,0-0.1-0.1-0.2c0,0-0.1-0.1-0.2-0.1l-1.5,0.1c-0.1,0-0.2,0.1-0.2,0.3c0,0.1,0.1,0.2,0.2,0.2
			l0.9-0.1L9.6,2.5l-4-4c-0.1-0.1-0.2-0.1-0.3,0L1.1,2.3C1,2.4,1,2.6,1.1,2.7s0.2,0.1,0.3,0l4-3.7l4,4C9.5,3,9.5,3,9.6,3h0
			C9.6,3,9.7,3,9.7,3l3.7-4.1l0,0.9C13.4-0.1,13.5,0,13.6,0L13.6,0z M9.6,5.5c-0.1,0-0.2,0.1-0.2,0.2v5c0,0.1,0.1,0.2,0.2,0.2
			c0.1,0,0.2-0.1,0.2-0.2v-5C9.8,5.6,9.7,5.5,9.6,5.5z"/>
	</g>
</g>
<rect x="14" y="14" class="st2" width="1" height="1"/>
</svg>
