<?xml version="1.0" encoding="UTF-8"?>
<svg width="60px" height="60px" viewBox="0 0 60 60" version="1.1" xmlns="http://www.w3.org/2000/svg" xmlns:xlink="http://www.w3.org/1999/xlink">
    <!-- Generator: Sketch 51.2 (57519) - http://www.bohemiancoding.com/sketch -->
    <title>Group 15 Copy</title>
    <desc>Created with Sketch.</desc>
    <defs></defs>
    <g id="Page-2" stroke="none" stroke-width="1" fill="none" fill-rule="evenodd">
        <g id="运维管理" transform="translate(-857.000000, -609.000000)">
            <g id="数据列表" transform="translate(380.000000, 194.000000)">
                <g id="Group-6-Copy-5" transform="translate(387.000000, 365.000000)">
                    <g id="Group-15-Copy" transform="translate(90.000000, 50.000000)">
                        <circle id="Oval-2-Copy" fill="#0486FE" cx="30" cy="30" r="30"></circle>
                        <g id="审批模型-变更" transform="translate(16.000000, 16.000000)" fill-rule="nonzero">
                            <rect id="Rectangle-path" fill="#000000" opacity="0" x="0" y="0" width="28" height="28"></rect>
                            <path d="M25.6666758,8.77332422 L19.88,4.01332422 C18.9466676,3.3599918 17.7333324,3.91999098 17.7333324,5.0399918 L17.7333324,7.18665938 L12.5066566,7.18665938 C11.7599891,7.18665938 11.1999891,7.74665938 11.1999891,8.3999918 L11.1999891,10.9199918 C11.1999891,11.6666594 11.7599891,12.2266594 12.5066566,12.2266594 L17.7333242,12.2266594 L17.7333242,14.4666594 C17.7333242,15.5866594 19.0399918,16.1466594 19.8799918,15.493327 L25.6666676,10.733327 C26.32,10.2666594 26.32,9.23999453 25.6666676,8.77332695 L25.6666758,8.77332422 Z M15.3066758,15.7733242 L10.1733516,15.7733242 L10.1733516,13.7199918 C10.1733516,12.5999918 8.86668398,12.0399918 8.02668398,12.6933242 L2.33335977,17.36 C1.68002734,17.92 1.68002734,18.8533324 2.33335977,19.32 L8.02668398,23.9866758 C8.86668398,24.6400082 10.1733516,24.080009 10.1733516,22.9600082 L10.1733516,20.7200082 L15.3066758,20.7200082 C15.9600082,20.7200082 16.5200082,20.1600082 16.5200082,19.5066758 L16.5200082,16.9866758 C16.5200082,16.3333434 15.9600082,15.7733434 15.3066758,15.7733434 L15.3066758,15.7733242 Z" id="Shape" fill="#FFFFFF"></path>
                        </g>
                    </g>
                </g>
            </g>
        </g>
    </g>
</svg>