<?xml version="1.0" encoding="UTF-8"?>
<svg width="60px" height="60px" viewBox="0 0 60 60" version="1.1" xmlns="http://www.w3.org/2000/svg" xmlns:xlink="http://www.w3.org/1999/xlink">
    <!-- Generator: Sketch 51.2 (57519) - http://www.bohemiancoding.com/sketch -->
    <title>Group 15 Copy</title>
    <desc>Created with Sketch.</desc>
    <defs></defs>
    <g id="Page-2" stroke="none" stroke-width="1" fill="none" fill-rule="evenodd">
        <g id="运维管理" transform="translate(-1377.000000, -609.000000)">
            <g id="数据列表" transform="translate(380.000000, 194.000000)">
                <g id="Group-6-Copy-7" transform="translate(907.000000, 365.000000)">
                    <g id="Group-15-Copy" transform="translate(90.000000, 50.000000)">
                        <circle id="Oval-2-Copy" fill="#0486FE" cx="30" cy="30" r="30"></circle>
                        <g id="需求登记" transform="translate(17.000000, 18.000000)" fill-rule="nonzero">
                            <rect id="Rectangle-path" fill="#000000" opacity="0" x="0" y="0" width="23.9639964" height="23.9639964"></rect>
                            <path d="M22.6655835,6.23063906 C22.8191118,6.07686544 23.0275762,5.99059147 23.2448713,5.9908981 C23.4621664,5.99120472 23.6703865,6.07806667 23.8234802,6.23227297 L25.7455017,8.15429442 C26.0652032,8.47399592 26.0635693,8.99521284 25.7465909,9.31164651 L24.7842186,10.2740188 L21.7032112,7.19301137 L22.6655835,6.23063906 Z M20.9330955,7.96367171 L24.0141029,11.0441345 L16.8924389,18.1657985 C16.7846009,18.2741812 16.5798177,18.3618676 16.4235071,18.3618676 L13.8893145,18.3618676 C13.8163427,18.36276 13.7461143,18.3340908 13.6946143,18.2823856 C13.6431143,18.2306804 13.6147245,18.1603386 13.615907,18.0873709 L13.615907,15.5548122 C13.615907,15.4034033 13.7030488,15.1937184 13.8119761,15.0853357 L20.9330955,7.96421635 L20.9330955,7.96367171 Z M20.1651583,9.50226922 L17.0797938,12.5865445 C16.8699022,12.7999716 16.8706305,13.1424936 17.0814277,13.3550263 C17.1829013,13.4573482 17.3209508,13.5150395 17.4650569,13.5153461 C17.6091631,13.5156528 17.7474568,13.4585494 17.8493649,13.3566602 L20.9341848,10.2723849 C21.1440763,10.0589578 21.1433481,9.71643581 20.9325509,9.50390312 C20.8310772,9.40158116 20.6930278,9.34388987 20.5489216,9.34358326 C20.4048155,9.34327665 20.2665218,9.40037999 20.1646137,9.50226922 L20.1651583,9.50226922 Z M15.9267988,13.7400841 L18.2371459,16.0509759 L17.0819723,17.2061494 L16.3118566,17.2061494 L15.9267988,16.0509759 L14.7710806,15.665918 L14.7710806,14.8958023 L15.9267988,13.7400841 Z M22.8747238,4.51285623 L20.6961787,4.82384354 L20.6961787,3.81626643 C20.6966122,3.38225472 20.5245802,2.96585473 20.2179428,2.6587067 C19.9113055,2.35155867 19.4951924,2.17883387 19.0611806,2.17854513 L3.81354324,2.17854513 C3.37953141,2.17883387 2.96341829,2.35155867 2.65678098,2.6587067 C2.35014368,2.96585473 2.1781116,3.38225472 2.17854513,3.81626643 L2.17854513,20.14773 C2.1781116,20.5817417 2.35014368,20.9981417 2.65678098,21.3052897 C2.96341829,21.6124377 3.37953141,21.7851625 3.81354324,21.7854513 L19.0611806,21.7854513 C19.4951924,21.7851625 19.9113055,21.6124377 20.2179428,21.3052897 C20.5245802,20.9981417 20.6966122,20.5817417 20.6961787,20.14773 L20.6961787,16.2612055 L22.8747238,15.9502182 L22.8747238,20.6945448 C22.8744254,22.4983887 21.4134712,23.9612925 19.6096293,23.9639964 L3.26509451,23.9639964 C2.39851537,23.9635633 1.56761712,23.618826 0.95526177,23.0056535 C0.342906425,22.392481 -0.000722500668,21.5611237 -3.62679179e-16,20.6945448 L-3.62679179e-16,3.2694516 C0.000298417287,1.4656077 1.4612526,0.00270394443 3.26509451,-1.55130858e-14 L19.6096293,-1.55130858e-14 C20.4762085,0.000433131783 21.3071067,0.345170413 21.9194621,0.958342914 C22.5318174,1.57151541 22.8754463,2.40287266 22.8747238,3.2694516 L22.8747238,4.51285623 Z M3.2678177,6.53563538 C3.26781291,5.93574421 3.75284679,5.4487624 4.35273316,5.44636282 L18.5219907,5.44636282 C19.1210906,5.44636282 19.6069061,5.92999985 19.6069061,6.53563538 C19.6069109,7.13552655 19.1218771,7.62250838 18.5219907,7.62490795 L4.35273316,7.62490795 C4.06414971,7.62520162 3.78736512,7.51039373 3.58371505,7.30592579 C3.38006499,7.10145784 3.26636738,6.82421533 3.2678177,6.53563538 Z M3.2678177,11.9819982 C3.2678177,11.3801751 3.75907963,10.8927256 4.35436708,10.8927256 L13.6186302,10.8927256 C14.2188194,10.8927256 14.7051796,11.3763626 14.7051796,11.9819982 C14.7051796,12.5838213 14.2139177,13.0712708 13.6186302,13.0712708 L4.35436708,13.0712708 C4.06559006,13.071708 3.7885545,12.9569987 3.58461379,12.7525469 C3.38067309,12.5480951 3.26665762,12.2707732 3.2678177,11.9819982 Z M3.2678177,17.428361 C3.2678177,16.8265379 3.75635644,16.3390885 4.36035808,16.3390885 L9.80018527,16.3390885 C10.4036423,16.3390885 10.8927256,16.8227255 10.8927256,17.428361 C10.8927256,18.0301841 10.4041869,18.5176336 9.80018527,18.5176336 L4.36035808,18.5176336 C4.07081088,18.5187931 3.79274084,18.4045079 3.58769198,18.2000724 C3.38264313,17.9956369 3.26752554,17.7179104 3.2678177,17.428361 Z" id="Shape" fill="#FFFFFF"></path>
                        </g>
                    </g>
                </g>
            </g>
        </g>
    </g>
</svg>