<?xml version="1.0" encoding="UTF-8"?>
<svg width="60px" height="60px" viewBox="0 0 60 60" version="1.1" xmlns="http://www.w3.org/2000/svg" xmlns:xlink="http://www.w3.org/1999/xlink">
    <!-- Generator: Sketch 51.2 (57519) - http://www.bohemiancoding.com/sketch -->
    <title>Group 15 Copy</title>
    <desc>Created with Sketch.</desc>
    <defs></defs>
    <g id="Page-2" stroke="none" stroke-width="1" fill="none" fill-rule="evenodd">
        <g id="Artboard" transform="translate(-350.000000, -269.000000)">
            <g id="数据列表" transform="translate(220.000000, 114.000000)">
                <g id="Group-6" transform="translate(40.000000, 105.000000)">
                    <g id="Group-15-Copy" transform="translate(90.000000, 50.000000)">
                        <circle id="Oval-2-Copy" fill="#0486FE" cx="30" cy="30" r="30"></circle>
                        <g id="control" transform="translate(18.000000, 16.000000)" fill="#FFFFFF" fill-rule="nonzero">
                            <path d="M1.08070248,23.5192836 C1.08070248,23.9280589 1.38281086,24.2693932 1.76268289,24.2693932 L4.58694891,24.2693932 C4.96338008,24.2693932 5.27099385,23.9287471 5.27099385,23.5192836 L5.27099385,15.8771115 L1.08070248,18.6036568 L1.08070248,23.5192836 Z M6.96734271,14.7677751 L6.96734271,23.5192836 C6.96734271,23.9280589 7.28115005,24.2693932 7.65276399,24.2693932 L10.4784064,24.2693932 C10.8562139,24.2693932 11.165204,23.9287471 11.165204,23.5192836 L11.165204,14.4388279 L9.2555212,13.2826956 L6.96734271,14.7677751 Z M12.9104132,15.495175 L12.8608647,15.4621426 L12.8608647,23.5151545 C12.8608647,23.9280589 13.1677903,24.2673287 13.5476623,24.2673287 L16.3719283,24.2673287 C16.7490477,24.2673287 17.0525324,23.9280589 17.0525324,23.5151545 L17.0525324,11.717788 C17.0525324,11.6840675 17.0504679,11.6462179 17.0449625,11.606992 L12.9104132,15.495175 Z M18.755763,10.0001057 L18.755763,23.5192836 C18.7523221,23.9280589 19.0640649,24.2693932 19.4377434,24.2693932 L22.264074,24.2693932 C22.6398169,24.2693932 22.9426135,23.9287471 22.9426135,23.5192836 L22.9426135,9.77644919 L21.2538346,7.64517437 L18.755763,10.0001057 Z M22.4485046,3 L19.7584325,3.18993602 C19.7584325,3.18993602 18.7309887,3.14933375 18.9484517,3.56499084 L20.3413159,4.97024211 L12.9000906,11.1693133 L10.338707,9.22315731 C10.125734,9.06431249 9.83586919,9.05659746 9.61474801,9.20388844 L1.27270302,14.8503559 C1.04689414,15.0044432 0.947462813,15.2874268 1.02725919,15.5488939 C1.10705556,15.8103611 1.34755209,15.9896031 1.62091905,15.9913484 C1.74404763,15.9890207 1.8641152,15.9525716 1.96775874,15.8860578 L9.94094248,10.4859566 L12.5408638,12.4623922 C12.7725419,12.6390606 13.0958565,12.6310493 13.3185004,12.4431234 L21.2152968,5.86211559 L22.3260096,7.10151693 C22.7994733,7.55639993 22.9426135,6.82487099 22.9426135,6.82487099 L22.9426135,3.54503379 C22.9433017,3.54021657 22.9494952,3.15690367 22.4485046,3 Z M1.26169224,9.70969631 L6.72648182,9.70969631 C6.82970791,9.70969631 6.91297697,9.62229822 6.90815975,9.51769577 C6.88613818,9.10410321 6.80149278,8.64302664 6.47461014,8.20810069 C5.97293131,7.55158271 5.06385348,7.76698116 4.62135761,7.16551711 C4.57456178,7.09738788 4.56561552,6.91639812 4.56905639,6.78082785 C4.56905639,6.73265567 4.59314248,6.6817308 4.62892752,6.64869845 C5.00398234,6.31080502 5.25791854,5.72103992 5.25791854,5.14297378 C5.25791854,4.03845454 5.08793957,3.12524766 3.97172137,3.12524766 C2.81971813,3.12524766 2.65799724,4.04808897 2.66831985,5.15880178 C2.67382524,5.72654531 2.92707327,6.31355772 3.30212809,6.64869845 C3.34041016,6.68364057 3.36215374,6.73312596 3.36199922,6.78495689 C3.36199922,6.92121534 3.35374114,7.0994524 3.30419261,7.16482893 C2.86720213,7.76629299 1.97601683,7.53506653 1.5032413,8.20810069 C1.19218666,8.65266108 1.10410039,9.10479138 1.08070248,9.51769577 C1.07786671,9.56752266 1.09565318,9.61632198 1.12988644,9.65263787 C1.1641197,9.68895377 1.21178483,9.7095879 1.26169224,9.70969631 Z" id="Shape"></path>
                        </g>
                    </g>
                </g>
            </g>
        </g>
    </g>
</svg>