<?xml version="1.0" encoding="UTF-8"?>
<svg width="60px" height="60px" viewBox="0 0 60 60" version="1.1" xmlns="http://www.w3.org/2000/svg" xmlns:xlink="http://www.w3.org/1999/xlink">
    <!-- Generator: Sketch 51.2 (57519) - http://www.bohemiancoding.com/sketch -->
    <title>Group 15 Copy</title>
    <desc>Created with Sketch.</desc>
    <defs></defs>
    <g id="Page-2" stroke="none" stroke-width="1" fill="none" fill-rule="evenodd">
        <g id="运维管理" transform="translate(-597.000000, -369.000000)">
            <g id="数据列表" transform="translate(380.000000, 194.000000)">
                <g id="Group-6" transform="translate(127.000000, 125.000000)">
                    <g id="Group-15-Copy" transform="translate(90.000000, 50.000000)">
                        <circle id="Oval-2-Copy" fill="#0486FE" cx="30" cy="30" r="30"></circle>
                        <g id="control" transform="translate(19.000000, 19.000000)" fill="#FFFFFF" fill-rule="nonzero">
                            <path d="M21,0 L0.875,0 C0.391015625,0 0,0.391015625 0,0.875 L0,21 C0,21.4839844 0.391015625,21.875 0.875,21.875 L21,21.875 C21.4839844,21.875 21.875,21.4839844 21.875,21 L21.875,0.875 C21.875,0.391015625 21.4839844,0 21,0 Z M19.90625,19.90625 L1.96875,19.90625 L1.96875,1.96875 L19.90625,1.96875 L19.90625,19.90625 Z M6.234375,15.6132812 L6.234375,17.71875 C6.234375,17.8390625 6.3328125,17.9375 6.453125,17.9375 L7.765625,17.9375 C7.8859375,17.9375 7.984375,17.8390625 7.984375,17.71875 L7.984375,15.6132812 C7.70820312,15.7035156 7.415625,15.75 7.109375,15.75 C6.803125,15.75 6.51054688,15.7007813 6.234375,15.6132812 Z M7.984375,10.1992188 L7.984375,4.15625 C7.984375,4.0359375 7.8859375,3.9375 7.765625,3.9375 L6.453125,3.9375 C6.3328125,3.9375 6.234375,4.0359375 6.234375,4.15625 L6.234375,10.1992188 C6.51054688,10.1089844 6.803125,10.0625 7.109375,10.0625 C7.415625,10.0625 7.70820312,10.1117187 7.984375,10.1992188 Z M6.234375,15.6132812 C6.51054688,15.7035156 6.803125,15.75 7.109375,15.75 C7.415625,15.75 7.70820312,15.7007813 7.984375,15.6132812 C9.12734375,15.2441406 9.953125,14.1722656 9.953125,12.90625 C9.953125,11.6402344 9.12734375,10.5683594 7.984375,10.1992188 C7.70820312,10.1089844 7.415625,10.0625 7.109375,10.0625 C6.803125,10.0625 6.51054688,10.1117187 6.234375,10.1992188 C5.09140625,10.5683594 4.265625,11.6402344 4.265625,12.90625 C4.265625,14.1722656 5.09140625,15.2441406 6.234375,15.6132812 Z M6.23710938,12.4496094 C6.2453125,12.4332031 6.25625,12.4167969 6.26445313,12.4003906 L6.26445313,12.3976562 L6.29726563,12.3484375 C6.3,12.3429687 6.30273438,12.3402344 6.30546875,12.3347656 C6.31367188,12.3210937 6.32460938,12.3101562 6.3328125,12.2964844 C6.33554688,12.29375 6.33828125,12.2882812 6.34101563,12.2855469 C6.3546875,12.2691406 6.365625,12.2554687 6.37929688,12.2417969 L6.3875,12.2335937 L6.4203125,12.2007812 L6.43125,12.1898437 C6.44492187,12.1761719 6.45859375,12.1652344 6.475,12.1515625 C6.49140625,12.1378906 6.50507813,12.1269531 6.52148438,12.1160156 C6.52695312,12.1132812 6.5296875,12.1105469 6.53515625,12.1078125 C6.54882812,12.0996094 6.55976562,12.0886719 6.5734375,12.0804688 C6.57617188,12.0777344 6.58164062,12.075 6.584375,12.0722656 C6.60078125,12.0613281 6.6171875,12.053125 6.63632812,12.0421875 C6.6390625,12.0394531 6.64453125,12.0394531 6.64726562,12.0367188 C6.6609375,12.0285156 6.67460937,12.0230469 6.69101562,12.0148438 L6.70742187,12.0066406 C6.7265625,11.9984375 6.74296875,11.9902344 6.76210937,11.9847656 C6.78125,11.9765625 6.80039062,11.9710938 6.81953125,11.965625 C6.825,11.9628906 6.83046875,11.9628906 6.8359375,11.9601563 C6.85234375,11.9546875 6.86601563,11.9519531 6.88242187,11.9492188 C6.88789062,11.9492188 6.890625,11.9464844 6.89609375,11.9464844 C6.91523437,11.9410156 6.93710937,11.9382813 6.95625,11.9355469 C6.96171875,11.9355469 6.96445312,11.9355469 6.96992187,11.9328125 C6.98632812,11.9300781 7.00273437,11.9300781 7.01914062,11.9273438 L7.03554687,11.9273438 C7.05742188,11.9273438 7.0765625,11.9246094 7.0984375,11.9246094 C7.1203125,11.9246094 7.13945313,11.9246094 7.16132813,11.9273438 L7.17773438,11.9273438 C7.19414063,11.9273438 7.21054688,11.9300781 7.22695313,11.9328125 C7.23242188,11.9328125 7.23515625,11.9328125 7.240625,11.9355469 C7.25976563,11.9382813 7.28164063,11.9410156 7.30078125,11.9464844 C7.30625,11.9464844 7.30898438,11.9492188 7.31445313,11.9492188 C7.33085938,11.9519531 7.34726563,11.9574219 7.3609375,11.9601563 C7.36640625,11.9628906 7.371875,11.9628906 7.37734375,11.965625 C7.39648438,11.9710938 7.415625,11.9765625 7.43476563,11.9847656 C7.45390625,11.9902344 7.4703125,11.9984375 7.48945313,12.0066406 L7.50585938,12.0148438 C7.51953125,12.0203125 7.5359375,12.0285156 7.54960938,12.0367188 C7.55234375,12.0394531 7.5578125,12.0394531 7.56054688,12.0421875 C7.57695313,12.0503906 7.59609375,12.0613281 7.6125,12.0722656 C7.61523438,12.075 7.62070313,12.0777344 7.6234375,12.0804688 C7.63710938,12.0886719 7.65078125,12.096875 7.66171875,12.1078125 C7.6671875,12.1105469 7.66992188,12.1132813 7.67539063,12.1160156 C7.69179688,12.1269531 7.70820313,12.140625 7.721875,12.1515625 C7.73554688,12.1625 7.75195313,12.1761719 7.765625,12.1898437 L7.7765625,12.2007812 L7.809375,12.2335937 L7.81757812,12.2417969 C7.83125,12.2554687 7.84492188,12.271875 7.85585937,12.2855469 C7.85859375,12.2882812 7.86132812,12.29375 7.8640625,12.2964844 C7.875,12.3074219 7.88320312,12.3210937 7.89140625,12.3347656 C7.89414063,12.3402344 7.896875,12.3429687 7.89960937,12.3484375 L7.93242187,12.3976562 C7.93242187,12.3976562 7.93242187,12.4003906 7.93515625,12.4003906 C7.94609375,12.4167969 7.95429687,12.4332031 7.9625,12.4496094 C8.03359375,12.5863281 8.07460938,12.7421875 8.07460938,12.90625 C8.07460938,13.0703125 8.03359375,13.2261719 7.9625,13.3628906 C7.95429687,13.3792969 7.94335938,13.3957031 7.93515625,13.4121094 C7.93515625,13.4121094 7.93515625,13.4148437 7.93242187,13.4148437 L7.89960937,13.4640625 C7.896875,13.4695312 7.89414063,13.4722656 7.89140625,13.4777344 C7.88320312,13.4914062 7.87226562,13.5023437 7.8640625,13.5160156 C7.86132812,13.51875 7.85859375,13.5242187 7.85585937,13.5269531 C7.8421875,13.5433594 7.83125,13.5570312 7.81757812,13.5707031 L7.809375,13.5789062 L7.7765625,13.6117187 L7.765625,13.6226562 C7.75195313,13.6363281 7.73828125,13.6472656 7.721875,13.6609375 C7.70546875,13.6746094 7.69179687,13.6855469 7.67539063,13.6964844 C7.66992188,13.6992187 7.6671875,13.7019531 7.66171875,13.7046875 C7.64804688,13.7128906 7.63710938,13.7238281 7.6234375,13.7320312 C7.62070313,13.7347656 7.61523438,13.7375 7.6125,13.7402344 C7.59609375,13.7511719 7.5796875,13.759375 7.56054688,13.7703125 C7.5578125,13.7730469 7.55234375,13.7730469 7.54960938,13.7757812 C7.5359375,13.7839844 7.52226563,13.7894531 7.50585938,13.7976562 L7.48945313,13.8058594 C7.4703125,13.8140625 7.45390625,13.8222656 7.43476563,13.8277344 C7.415625,13.8359375 7.39648438,13.8414062 7.37734375,13.846875 C7.371875,13.8496094 7.36640625,13.8496094 7.3609375,13.8523437 C7.34453125,13.8578125 7.33085938,13.8605469 7.31445313,13.8632812 C7.30898438,13.8632812 7.30625,13.8660156 7.30078125,13.8660156 C7.28164063,13.8714844 7.25976563,13.8742187 7.240625,13.8769531 C7.23515625,13.8769531 7.23242188,13.8769531 7.22695313,13.8796875 C7.21054688,13.8824219 7.19414063,13.8824219 7.17773438,13.8851562 L7.16132813,13.8851562 C7.13945313,13.8851562 7.1203125,13.8878906 7.0984375,13.8878906 C7.0765625,13.8878906 7.05742188,13.8878906 7.03554687,13.8851562 L7.01914062,13.8851562 C7.00273437,13.8851562 6.98632812,13.8824219 6.96992187,13.8796875 C6.96445312,13.8796875 6.96171875,13.8796875 6.95625,13.8769531 C6.93710937,13.8742187 6.91523437,13.8714844 6.89609375,13.8660156 C6.890625,13.8660156 6.88789062,13.8632812 6.88242187,13.8632812 C6.86601562,13.8605469 6.84960938,13.8550781 6.8359375,13.8523437 C6.83046875,13.8496094 6.825,13.8496094 6.81953125,13.846875 C6.80039062,13.8414062 6.78125,13.8359375 6.76210937,13.8277344 C6.74296875,13.8222656 6.7265625,13.8140625 6.70742187,13.8058594 L6.69101562,13.7976562 C6.67734375,13.7921875 6.6609375,13.7839844 6.64726562,13.7757812 C6.64453125,13.7730469 6.6390625,13.7730469 6.63632812,13.7703125 C6.61992187,13.7621094 6.60078125,13.7511719 6.584375,13.7402344 C6.58164062,13.7375 6.57617187,13.7347656 6.5734375,13.7320312 C6.55976562,13.7238281 6.54609375,13.715625 6.53515625,13.7046875 C6.5296875,13.7019531 6.52695312,13.6992187 6.52148438,13.6964844 C6.50507812,13.6855469 6.48867188,13.671875 6.475,13.6609375 C6.46132813,13.65 6.44492187,13.6363281 6.43125,13.6226562 L6.4203125,13.6117187 L6.3875,13.5789062 L6.37929688,13.5707031 C6.365625,13.5570312 6.35195313,13.540625 6.34101563,13.5269531 C6.33828125,13.5242187 6.33554688,13.51875 6.3328125,13.5160156 C6.321875,13.5050781 6.31367188,13.4914062 6.30546875,13.4777344 C6.30273438,13.4722656 6.3,13.4695312 6.29726563,13.4640625 L6.26445313,13.4148437 L6.26445313,13.4121094 C6.25351563,13.3957031 6.2453125,13.3792969 6.23710938,13.3628906 C6.16601562,13.2261719 6.125,13.0703125 6.125,12.90625 C6.125,12.7421875 6.16601562,12.5863281 6.23710938,12.4496094 Z M13.890625,11.6757812 L13.890625,17.71875 C13.890625,17.8390625 13.9890625,17.9375 14.109375,17.9375 L15.421875,17.9375 C15.5421875,17.9375 15.640625,17.8390625 15.640625,17.71875 L15.640625,11.6757812 C15.3644531,11.7660156 15.071875,11.8125 14.765625,11.8125 C14.459375,11.8125 14.1667969,11.7632813 13.890625,11.6757812 Z M15.640625,6.26171875 L15.640625,4.15625 C15.640625,4.0359375 15.5421875,3.9375 15.421875,3.9375 L14.109375,3.9375 C13.9890625,3.9375 13.890625,4.0359375 13.890625,4.15625 L13.890625,6.26171875 C14.1667969,6.17148438 14.459375,6.125 14.765625,6.125 C15.071875,6.125 15.3644531,6.17421875 15.640625,6.26171875 Z M13.890625,11.6757812 C14.1667969,11.7660156 14.459375,11.8125 14.765625,11.8125 C15.071875,11.8125 15.3644531,11.7632813 15.640625,11.6757812 C16.7835937,11.3066406 17.609375,10.2347656 17.609375,8.96875 C17.609375,7.70273437 16.7835937,6.63085938 15.640625,6.26171875 C15.3644531,6.17148437 15.071875,6.125 14.765625,6.125 C14.459375,6.125 14.1667969,6.17421875 13.890625,6.26171875 C12.7476563,6.63085938 11.921875,7.70273437 11.921875,8.96875 C11.921875,10.2347656 12.7476563,11.3066406 13.890625,11.6757812 Z M13.8933594,8.51210937 C13.9015625,8.49570312 13.9125,8.47929687 13.9207031,8.46289062 L13.9207031,8.46015625 L13.9535156,8.4109375 C13.95625,8.40546875 13.9589844,8.40273437 13.9617188,8.39726562 C13.9699219,8.38359375 13.9808594,8.37265625 13.9890625,8.35898437 C13.9917969,8.35625 13.9945313,8.35078125 13.9972656,8.34804687 C14.0109375,8.33164062 14.021875,8.31796875 14.0355469,8.30429687 L14.04375,8.29609375 L14.0765625,8.26328125 L14.0875,8.25234375 C14.1011719,8.23867187 14.1148437,8.22773437 14.13125,8.2140625 C14.1476562,8.20039062 14.1613281,8.18945312 14.1777344,8.17851562 C14.1832031,8.17578125 14.1859375,8.17304687 14.1914062,8.1703125 C14.2050781,8.16210937 14.2160156,8.15117187 14.2296875,8.14296875 C14.2324219,8.14023437 14.2378906,8.1375 14.240625,8.13476562 C14.2570312,8.12382812 14.2734375,8.115625 14.2925781,8.1046875 C14.2953125,8.10195312 14.3007812,8.10195312 14.3035156,8.09921875 C14.3171875,8.09101562 14.3308594,8.08554687 14.3472656,8.07734375 L14.3636719,8.06914062 C14.3828125,8.0609375 14.3992187,8.05273437 14.4183594,8.04726562 C14.4375,8.0390625 14.4566406,8.03359375 14.4757812,8.028125 C14.48125,8.02539062 14.4867187,8.02539062 14.4921875,8.02265625 C14.5085938,8.0171875 14.5222656,8.01445312 14.5386719,8.01171875 C14.5441406,8.01171875 14.546875,8.00898437 14.5523438,8.00898437 C14.5714844,8.00351562 14.5933594,8.00078125 14.6125,7.99804687 C14.6179688,7.99804687 14.6207031,7.99804687 14.6261719,7.9953125 C14.6425781,7.99257812 14.6589844,7.99257812 14.6753906,7.98984375 L14.6917969,7.98984375 C14.7136719,7.98984375 14.7328125,7.98710937 14.7546875,7.98710937 C14.7765625,7.98710937 14.7957031,7.98710937 14.8175781,7.98984375 L14.8339844,7.98984375 C14.8503906,7.98984375 14.8667969,7.99257812 14.8832031,7.9953125 C14.8886719,7.9953125 14.8914062,7.9953125 14.896875,7.99804687 C14.9160156,8.00078125 14.9378906,8.00351562 14.9570312,8.00898437 C14.9625,8.00898437 14.9652344,8.01171875 14.9707031,8.01171875 C14.9871094,8.01445312 15.0035156,8.01992187 15.0171875,8.02265625 C15.0226563,8.02539062 15.028125,8.02539062 15.0335938,8.028125 C15.0527344,8.03359375 15.071875,8.0390625 15.0910156,8.04726562 C15.1101563,8.05273437 15.1265625,8.0609375 15.1457031,8.06914062 L15.1621094,8.07734375 C15.1757813,8.0828125 15.1921875,8.09101562 15.2058594,8.09921875 C15.2085938,8.10195312 15.2140625,8.10195312 15.2167969,8.1046875 C15.2332031,8.11289062 15.2523438,8.12382812 15.26875,8.13476562 C15.2714844,8.1375 15.2769531,8.14023437 15.2796875,8.14296875 C15.2933594,8.15117187 15.3070313,8.159375 15.3179688,8.1703125 C15.3234375,8.17304687 15.3261719,8.17578125 15.3316406,8.17851562 C15.3480469,8.18945312 15.3644531,8.203125 15.378125,8.2140625 C15.3917969,8.225 15.4082031,8.23867187 15.421875,8.25234375 L15.4328125,8.26328125 L15.465625,8.29609375 L15.4738281,8.30429687 C15.4875,8.31796875 15.5011719,8.334375 15.5121094,8.34804687 C15.5148438,8.35078125 15.5175781,8.35625 15.5203125,8.35898437 C15.53125,8.36992187 15.5394531,8.38359375 15.5476563,8.39726562 C15.5503906,8.40273437 15.553125,8.40546875 15.5558594,8.4109375 L15.5886719,8.46015625 L15.5886719,8.46289062 C15.5996094,8.47929687 15.6078125,8.49570312 15.6160156,8.51210937 C15.6871094,8.64882812 15.728125,8.8046875 15.728125,8.96875 C15.728125,9.1328125 15.6871094,9.28867187 15.6160156,9.42539062 C15.6078125,9.44179687 15.596875,9.45820312 15.5886719,9.47460937 L15.5886719,9.47734375 L15.5558594,9.5265625 C15.553125,9.53203125 15.5503906,9.53476562 15.5476563,9.54023437 C15.5394531,9.55390625 15.5285156,9.56484375 15.5203125,9.57851562 C15.5175781,9.58125 15.5148438,9.58671875 15.5121094,9.58945312 C15.4984375,9.60585937 15.4875,9.61953125 15.4738281,9.63320312 L15.465625,9.64140625 L15.4328125,9.67421875 L15.421875,9.68515625 C15.4082031,9.69882812 15.3945313,9.70976562 15.378125,9.7234375 C15.3617188,9.73710937 15.3480469,9.74804687 15.3316406,9.75898437 C15.3261719,9.76171875 15.3234375,9.76445312 15.3179688,9.7671875 C15.3042969,9.77539062 15.2933594,9.78632812 15.2796875,9.79453125 C15.2769531,9.79726562 15.2714844,9.8 15.26875,9.80273437 C15.2523438,9.81367187 15.2359375,9.821875 15.2167969,9.8328125 C15.2140625,9.83554687 15.2085938,9.83554687 15.2058594,9.83828125 C15.1921875,9.84648437 15.1785156,9.85195312 15.1621094,9.86015625 L15.1457031,9.86835937 C15.1265625,9.8765625 15.1101563,9.88476562 15.0910156,9.89023437 C15.071875,9.8984375 15.0527344,9.90390625 15.0335938,9.909375 C15.028125,9.91210938 15.0226563,9.91210938 15.0171875,9.91484375 C15.0007813,9.9203125 14.9871094,9.92304687 14.9707031,9.92578125 C14.9652344,9.92578125 14.9625,9.92851562 14.9570312,9.92851562 C14.9378906,9.93398437 14.9160156,9.93671875 14.896875,9.93945312 C14.8914062,9.93945312 14.8886719,9.93945312 14.8832031,9.9421875 C14.8667969,9.94492187 14.8503906,9.94492187 14.8339844,9.94765625 L14.8175781,9.94765625 C14.7957031,9.94765625 14.7765625,9.95039062 14.7546875,9.95039062 C14.7328125,9.95039062 14.7136719,9.95039062 14.6917969,9.94765625 L14.6753906,9.94765625 C14.6589844,9.94765625 14.6425781,9.94492187 14.6261719,9.9421875 C14.6207031,9.9421875 14.6179688,9.9421875 14.6125,9.93945312 C14.5933594,9.93671875 14.5714844,9.93398437 14.5523438,9.92851562 C14.546875,9.92851562 14.5441406,9.92578125 14.5386719,9.92578125 C14.5222656,9.92304687 14.5058594,9.91757812 14.4921875,9.91484375 C14.4867187,9.91210937 14.48125,9.91210937 14.4757812,9.909375 C14.4566406,9.90390625 14.4375,9.8984375 14.4183594,9.89023437 C14.3992187,9.88476562 14.3828125,9.8765625 14.3636719,9.86835937 L14.3472656,9.86015625 C14.3335937,9.8546875 14.3171875,9.84648437 14.3035156,9.83828125 C14.3007812,9.83554687 14.2953125,9.83554687 14.2925781,9.8328125 C14.2761719,9.82460937 14.2570312,9.81367187 14.240625,9.80273437 C14.2378906,9.8 14.2324219,9.79726562 14.2296875,9.79453125 C14.2160156,9.78632812 14.2023437,9.778125 14.1914062,9.7671875 C14.1859375,9.76445312 14.1832031,9.76171875 14.1777344,9.75898437 C14.1613281,9.74804687 14.1449219,9.734375 14.13125,9.7234375 C14.1175781,9.7125 14.1011719,9.69882812 14.0875,9.68515625 L14.0765625,9.67421875 L14.04375,9.64140625 L14.0355469,9.63320312 C14.021875,9.61953125 14.0082031,9.603125 13.9972656,9.58945312 C13.9945312,9.58671875 13.9917969,9.58125 13.9890625,9.57851562 C13.978125,9.56757812 13.9699219,9.55390625 13.9617188,9.54023437 C13.9589844,9.53476562 13.95625,9.53203125 13.9535156,9.5265625 L13.9207031,9.47734375 L13.9207031,9.47460937 C13.9097656,9.45820312 13.9015625,9.44179687 13.8933594,9.42539062 C13.8222656,9.28867187 13.78125,9.1328125 13.78125,8.96875 C13.78125,8.8046875 13.8222656,8.64882812 13.8933594,8.51210937 Z" id="Shape"></path>
                        </g>
                    </g>
                </g>
            </g>
        </g>
    </g>
</svg>