<?xml version="1.0" encoding="UTF-8"?>
<svg width="60px" height="60px" viewBox="0 0 60 60" version="1.1" xmlns="http://www.w3.org/2000/svg" xmlns:xlink="http://www.w3.org/1999/xlink">
    <!-- Generator: Sketch 51.2 (57519) - http://www.bohemiancoding.com/sketch -->
    <title>Group 15 Copy</title>
    <desc>Created with Sketch.</desc>
    <defs></defs>
    <g id="Page-2" stroke="none" stroke-width="1" fill="none" fill-rule="evenodd">
        <g id="运维管理" transform="translate(-1117.000000, -609.000000)">
            <g id="数据列表" transform="translate(380.000000, 194.000000)">
                <g id="Group-6-Copy-6" transform="translate(647.000000, 365.000000)">
                    <g id="Group-15-Copy" transform="translate(90.000000, 50.000000)">
                        <circle id="Oval-2-Copy" fill="#0486FE" cx="30" cy="30" r="30"></circle>
                        <g id="GNSS连续采集" transform="translate(16.000000, 16.000000)" fill-rule="nonzero">
                            <rect id="Rectangle-path" fill="#000000" opacity="0" x="0" y="0" width="28" height="28"></rect>
                            <path d="M5.39671502,16.3959875 C5.39671502,20.3137233 8.57208611,23.4897659 12.4907733,23.4897659 C14.634176,23.4897659 16.5502609,22.5349413 17.8515466,21.0321922 L7.85392505,11.0349343 C6.35117591,12.3355485 5.39671502,14.252277 5.39671502,16.3959875 Z M26.2416861,13.6742729 L22.6207172,13.6742729 C21.8825776,9.38813887 18.1557004,6.12362021 13.6583656,6.12362021 L13.6583656,8.39973701 C16.893812,8.39973701 19.5977587,10.6532451 20.302293,13.6742729 L19.1282371,13.6742729 C18.4514599,11.2883865 16.2615527,9.53797726 13.6583656,9.53797726 L13.6583656,11.8140941 C14.9815885,11.8137583 16.1162752,12.5741987 16.6826392,13.6743008 L15.4840158,13.6743008 C15.4452621,13.6229556 15.4078235,13.5709669 15.361319,13.5241546 C14.9803013,13.1437805 14.4391203,13.0307652 13.9567273,13.1734684 L7.97793697,5.73423618 C8.13874395,5.41681938 8.09677239,5.02354604 7.83134436,4.75811798 C7.50133612,4.42780193 6.96535949,4.42749415 6.63535124,4.75811798 C6.35442172,5.03904751 6.32728012,5.4607496 6.52297942,5.78588916 L2.77735495,9.17310464 C2.50677839,9.11596738 2.21616743,9.17696601 2.00628173,9.3871875 C1.67562992,9.7178393 1.67562992,10.2535081 2.00628173,10.5838522 C2.33628998,10.914504 2.87229458,10.9141682 3.20230282,10.5838522 C3.42769,10.3591085 3.48709372,10.041384 3.40575288,9.75561371 L7.29150633,6.24217582 L13.2489472,13.654938 C12.811128,14.2119283 12.8427466,15.0175581 13.3555269,15.5306462 C13.9096353,16.0850623 14.8072666,16.084083 15.361375,15.5306462 C15.6384151,15.253634 15.777257,14.8906641 15.7766134,14.5274144 L16.9997761,14.5274144 C17.0469242,14.7534452 17.0727227,14.9875345 17.0727227,15.2274718 L19.3485037,15.2274718 C19.3485037,14.9898289 19.3291408,14.7573345 19.3013556,14.5274144 L20.4508723,14.5274144 C20.4741245,14.7576703 20.4864082,14.9910881 20.4864082,15.2274718 L22.7628328,15.2274718 C22.7628328,14.9911161 22.7454006,14.7592932 22.7272968,14.5274144 L26.2417141,14.5274144 L26.2417141,13.6742729 L26.2416861,13.6742729 Z" id="Shape" fill="#FFFFFF"></path>
                        </g>
                    </g>
                </g>
            </g>
        </g>
    </g>
</svg>