<?xml version="1.0" encoding="UTF-8"?>
<svg width="60px" height="60px" viewBox="0 0 60 60" version="1.1" xmlns="http://www.w3.org/2000/svg" xmlns:xlink="http://www.w3.org/1999/xlink">
    <!-- Generator: Sketch 51.2 (57519) - http://www.bohemiancoding.com/sketch -->
    <title>Group 15 Copy</title>
    <desc>Created with Sketch.</desc>
    <defs></defs>
    <g id="Page-2" stroke="none" stroke-width="1" fill="none" fill-rule="evenodd">
        <g id="Artboard" transform="translate(-350.000000, -269.000000)">
            <g id="数据列表" transform="translate(220.000000, 114.000000)">
                <g id="Group-6" transform="translate(40.000000, 105.000000)">
                    <g id="Group-15-Copy" transform="translate(90.000000, 50.000000)">
                        <circle id="Oval-2-Copy" fill="#0486FE" cx="30" cy="30" r="30"></circle>
                        <g id="control" transform="translate(18.000000, 16.000000)" fill="#FFFFFF" fill-rule="nonzero">
                            <path d="M24.0113153,12.9899583 L19.1855254,12.9899583 C18.9222496,12.9899583 18.670177,13.096389 18.4853238,13.284043 C18.3004705,13.4716971 18.1968407,13.7237697 18.1968407,13.9870455 L18.1968407,14.297935 C18.1968407,14.8468931 18.6421689,15.2922214 19.1883262,15.2922214 L24.0113153,15.2922214 C24.5574726,15.2922214 25,14.8468931 25,14.297935 L25,13.9870455 C25,13.7237697 24.8963702,13.4716971 24.7115169,13.284043 C24.5266637,13.096389 24.2745911,12.9899583 24.0113153,12.9899583 Z M12.8220928,4.45590051 C11.3208604,5.64904414 8.18115617,7.32112569 5.92370603,8.93158951 L5.92090522,8.93158951 C5.89569796,8.94839435 5.8704907,9.03802016 5.84248263,9.05202419 C5.576406,9.20326775 5.45597132,9.61498633 4.00515348,9.61498633 L1.17633879,9.61498633 C0.448129061,9.61498633 0,9.95668474 0,10.7241058 L0,17.5384683 C0,18.3058893 0.411718575,18.6839982 1.17633879,18.6839982 L4.01635671,18.6839982 C5.45877213,18.686799 5.576406,19.0985176 5.84248263,19.2469603 C5.86768989,19.2609644 5.89289715,19.3505902 5.91810441,19.367395 L5.92090522,19.367395 C8.11113601,20.9778588 11.2704459,22.7787775 12.8220928,23.9243074 C13.2898275,24.2688066 14.8414743,24.8737809 14.8414743,22.7451678 L14.8414743,5.5482151 C14.8414743,3.41680125 13.2758234,4.09739726 12.8220928,4.45590051 Z M17.2753753,9.15565404 C17.5330495,9.60658391 18.0399955,9.72141698 18.409702,9.40772664 L22.3728434,6.06636432 C22.7453507,5.75547479 22.8349765,5.13649652 22.5801031,4.68276585 L22.4344611,4.42789244 C22.1795877,3.97696258 21.6698409,3.86493031 21.3001344,4.17581985 L17.3369931,7.51718216 C16.9672866,7.8308725 16.87486,8.44704996 17.1297334,8.90078064 L17.2753753,9.15565404 Z M18.4069012,18.8856563 C18.0371947,18.5747667 17.5302487,18.6895998 17.2753753,19.1377289 L17.1297334,19.3926023 C16.87486,19.8435321 16.9672866,20.4625104 17.3369931,20.7762008 L21.3001344,24.1203639 C21.6698409,24.4312534 22.1767869,24.3192211 22.4316603,23.8682913 L22.5773023,23.6134179 C22.8321757,23.162488 22.739749,22.5435097 22.3700426,22.2298194 L18.4069012,18.8856563 Z" id="Shape"></path>
                        </g>
                    </g>
                </g>
            </g>
        </g>
    </g>
</svg>