<?xml version="1.0" encoding="UTF-8"?>
<svg width="60px" height="60px" viewBox="0 0 60 60" version="1.1" xmlns="http://www.w3.org/2000/svg" xmlns:xlink="http://www.w3.org/1999/xlink">
    <!-- Generator: Sketch 51.2 (57519) - http://www.bohemiancoding.com/sketch -->
    <title>Group 15 Copy</title>
    <desc>Created with Sketch.</desc>
    <defs></defs>
    <g id="Page-2" stroke="none" stroke-width="1" fill="none" fill-rule="evenodd">
        <g id="Artboard" transform="translate(-350.000000, -269.000000)">
            <g id="数据列表" transform="translate(220.000000, 114.000000)">
                <g id="Group-6" transform="translate(40.000000, 105.000000)">
                    <g id="Group-15-Copy" transform="translate(90.000000, 50.000000)">
                        <circle id="Oval-2-Copy" fill="#0486FE" cx="30" cy="30" r="30"></circle>
                        <g id="control" transform="translate(18.000000, 16.000000)" fill="#FFFFFF" fill-rule="nonzero">
                            <path d="M22.3013273,23.9022895 L1.16679058,23.8915976 C1.16679058,23.8915976 -1.1078973,23.9936614 0.694811332,22.2822995 C1.16850128,22.0229512 1.72347501,21.7814144 2.34594623,21.5617142 C2.19082528,21.2125537 2.10149112,20.8228142 2.10149112,20.4097286 C2.10149112,18.9343438 3.20879704,17.7386094 4.57492299,17.7386094 C5.94104894,17.7386094 7.04835486,18.9343689 7.04835486,20.4097286 C7.04835486,20.4411251 7.04500892,20.4716915 7.04400262,20.5026351 C7.20345065,20.4819809 7.36438297,20.4617543 7.52705115,20.4430623 L7.52705115,6.62708436 C7.52705115,5.71930231 8.19878068,5 9.10943069,5 L18.5909531,5 C19.5016031,5 20.1372065,5.71932746 20.1372065,6.62708436 L20.1372065,21.2180884 C21.2439086,21.5282799 22.1957414,21.8977928 22.9401257,22.3136457 C25.6532076,24.1227444 22.3012267,23.9022643 22.3012267,23.9022643 L22.3013273,23.9022895 Z M12.8152011,8.66101527 C12.8152011,8.20719972 12.4571852,7.8474731 12.0016841,7.8474731 L10.3745997,7.8474731 C9.91917409,7.8474731 9.5610827,8.20719972 9.5610827,8.66101527 L9.5610827,10.8984449 C9.5610827,11.3521096 10.1225471,11.7119871 10.578023,11.7119871 L12.0017092,11.7119871 C12.4572355,11.7119871 12.8152263,11.3521096 12.8152263,10.8984449 L12.8152263,8.66101527 L12.8152011,8.66101527 Z M12.8152011,14.5594351 C12.8152011,14.1054182 12.4571852,13.745918 12.0016841,13.745918 L10.3745997,13.745918 C9.91917409,13.745918 9.5610827,14.1054182 9.5610827,14.5594351 L9.5610827,16.7967641 C9.5610827,17.2504287 10.1225471,17.6103063 10.578023,17.6103063 L12.0017092,17.6103063 C12.4572355,17.6103063 12.8152263,17.2504287 12.8152263,16.7967641 L12.8152263,14.5594351 L12.8152011,14.5594351 Z M18.1034014,8.66101527 C18.1034014,8.20719972 17.7452848,7.8474731 17.2898843,7.8474731 L15.6627245,7.8474731 C15.2072989,7.8474731 14.8491823,8.20719972 14.8491823,8.66101527 L14.8491823,10.8984449 C14.8491823,11.3521096 15.4107222,11.7119871 15.8661226,11.7119871 L17.2898843,11.7119871 C17.74531,11.7119871 18.1034014,11.3521096 18.1034014,10.8984449 L18.1034014,8.66101527 Z M18.1034014,14.5594351 C18.1034014,14.1054182 17.7452848,13.745918 17.2898843,13.745918 L15.6627245,13.745918 C15.2072989,13.745918 14.8491823,14.1054182 14.8491823,14.5594351 L14.8491823,16.7967641 C14.8491823,17.2504287 15.4107222,17.6103063 15.8661226,17.6103063 L17.2898843,17.6103063 C17.74531,17.6103063 18.1034014,17.2504287 18.1034014,16.7967641 L18.1034014,14.5594351 Z" id="Shape"></path>
                        </g>
                    </g>
                </g>
            </g>
        </g>
    </g>
</svg>