<?xml version="1.0" encoding="UTF-8"?>
<svg width="60px" height="60px" viewBox="0 0 60 60" version="1.1" xmlns="http://www.w3.org/2000/svg" xmlns:xlink="http://www.w3.org/1999/xlink">
    <!-- Generator: Sketch 51.2 (57519) - http://www.bohemiancoding.com/sketch -->
    <title>Group 15 Copy</title>
    <desc>Created with Sketch.</desc>
    <defs></defs>
    <g id="Page-2" stroke="none" stroke-width="1" fill="none" fill-rule="evenodd">
        <g id="Artboard" transform="translate(-350.000000, -269.000000)">
            <g id="数据列表" transform="translate(220.000000, 114.000000)">
                <g id="Group-6" transform="translate(40.000000, 105.000000)">
                    <g id="Group-15-Copy" transform="translate(90.000000, 50.000000)">
                        <circle id="Oval-2-Copy" fill="#0486FE" cx="30" cy="30" r="30"></circle>
                        <g id="control" transform="translate(17.000000, 16.000000)" fill="#FFFFFF" fill-rule="nonzero">
                            <path d="M24.8,18.026087 L24.8,2.82608696 C24.8,2.66086957 24.8,2.49565217 24.6347826,2.33043478 L24.3043478,2 L8.77391304,2 L8.60869565,2 L8.44347826,2 C8.44347826,2.16521739 8.27826087,2.16521739 8.11304348,2.33043478 L2.16521739,8.44347826 C2.16521739,8.44347826 2.16521739,8.60869565 2,8.60869565 L2,24.3043478 C2,24.4695652 2,24.6347826 2.16521739,24.8 L2.49565217,25.1304348 L18.026087,25.1304348 C18.1913043,25.1304348 18.5217391,24.9652174 18.6869565,24.8 L24.6347826,18.5217391 C24.6347826,18.5217391 24.6347826,18.3565217 24.8,18.3565217 L24.8,18.026087 C24.8,18.3565217 24.8,18.1913043 24.8,18.026087 Z M7.94782609,17.6956522 L3.65217391,22.1565217 L3.65217391,9.93043478 L7.94782609,9.93043478 L7.94782609,17.6956522 Z M9.10434783,18.8521739 L17.2,18.8521739 L17.2,23.4782609 L4.80869565,23.4782609 L9.10434783,18.8521739 Z M9.6,17.2 L9.6,9.93043478 L17.2,9.93043478 L17.2,17.3652174 L9.6,17.3652174 L9.6,17.2 Z M17.6956522,8.27826087 L9.6,8.27826087 L9.6,3.65217391 L22.1565217,3.65217391 L17.6956522,8.27826087 Z M18.8521739,9.43478261 L23.1478261,4.97391304 L23.1478261,17.3652174 L18.8521739,17.3652174 L18.8521739,9.43478261 Z M7.94782609,8.27826087 L4.80869565,8.27826087 L7.94782609,4.97391304 L7.94782609,8.27826087 Z M18.8521739,18.8521739 L21.9913043,18.8521739 L18.8521739,22.1565217 L18.8521739,18.8521739 Z" id="Shape"></path>
                        </g>
                    </g>
                </g>
            </g>
        </g>
    </g>
</svg>