<?xml version="1.0" encoding="UTF-8"?>
<svg width="16px" height="16px" viewBox="0 0 16 16" version="1.1" xmlns="http://www.w3.org/2000/svg" xmlns:xlink="http://www.w3.org/1999/xlink">
    <!-- Generator: Sketch 52.4 (67378) - http://www.bohemiancoding.com/sketch -->
    <title>指标数据管理</title>
    <desc>Created with Sketch.</desc>
    <g id="-指标管理" stroke="none" stroke-width="1" fill="none" fill-rule="evenodd">
        <g id="21-指标模型管理-指标定义管理-指标数据管理" transform="translate(-21.000000, -502.000000)">
            <g id="侧导航-选中/正常" transform="translate(0.000000, 60.000000)">
                <g id="icon-指标数据管理" transform="translate(20.000000, 441.000000)">
                    <g>
                        <rect id="矩形" fill="#000000" opacity="0" x="0" y="0" width="18" height="18"></rect>
                        <path d="M16.2861328,15.5302734 L12.6386719,13.3716797 L16.0417969,13.3716797 L16.0417969,3.17285156 L9.24082031,3.17285156 L9.24082031,1.715625 L8.51308594,1.715625 L8.51308594,3.17285156 L1.71386719,3.17285156 L1.71386719,13.3716797 L5.2453125,13.3716797 L1.71738281,15.5091797 L2.08125,16.1402344 L6.6515625,13.3699219 L8.51308594,13.3699219 L8.51308594,16.284375 L9.24082031,16.284375 L9.24082031,13.3716797 L11.2464844,13.3716797 L15.9257812,16.1419922 L16.2861328,15.5302734 Z M2.44160156,12.6421875 L2.44160156,3.90058594 L15.3123047,3.90058594 L15.3123047,12.6421875 L2.44160156,12.6421875 Z M4.14140625,9 L4.86914062,9 L4.86914062,11.1849609 L4.14140625,11.1849609 L4.14140625,9 Z M6.328125,6.81503906 L7.05585937,6.81503906 L7.05585937,11.1867187 L6.328125,11.1867187 L6.328125,6.81503906 Z M8.51308594,7.54277344 L9.24082031,7.54277344 L9.24082031,11.1849609 L8.51308594,11.1849609 L8.51308594,7.54277344 Z M10.6980469,5.3578125 L11.4257813,5.3578125 L11.4257813,11.1849609 L10.6980469,11.1849609 L10.6980469,5.3578125 Z M12.8847656,7.54277344 L13.6125,7.54277344 L13.6125,11.1849609 L12.8847656,11.1849609 L12.8847656,7.54277344 Z" id="形状" fill="#42B983" fill-rule="nonzero"></path>
                    </g>
                </g>
            </g>
        </g>
    </g>
</svg>