<?xml version="1.0" encoding="UTF-8"?>
<svg width="16px" height="15px" viewBox="0 0 16 15" version="1.1" xmlns="http://www.w3.org/2000/svg" xmlns:xlink="http://www.w3.org/1999/xlink">
    <!-- Generator: Sketch 52.4 (67378) - http://www.bohemiancoding.com/sketch -->
    <title>icon-监控-策略管理</title>
    <desc>Created with Sketch.</desc>
    <g id="监控管理" stroke="none" stroke-width="1" fill="none" fill-rule="evenodd">
        <g id="2-操作管理-任务管理-任务定制管理" transform="translate(-21.000000, -143.000000)">
            <g id="icon-监控-策略管理" transform="translate(21.000000, 143.000000)">
                <g id="监控运维">
                    <rect id="矩形" fill="#000000" opacity="0" x="0" y="0" width="16" height="16"></rect>
                    <g id="分组" fill="#333333" fill-rule="nonzero">
                        <path d="M14.3768026,12.2731695 L1.62317806,12.2731695 C0.728166902,12.2731695 5.32907052e-14,11.5851108 5.32907052e-14,10.7394161 L5.32907052e-14,1.97499676 C5.32907052e-14,1.12926562 0.728166902,0.441206977 1.62317806,0.441206977 L14.3767834,0.441206977 C15.2717945,0.441206977 15.9999807,1.12926562 15.9999807,1.97499676 L15.9999807,10.7394343 C16,11.585129 15.2718138,12.2731695 14.3768026,12.2731695 Z M1.62317806,1.31764527 C1.23959634,1.31764527 0.927546853,1.61250671 0.927546853,1.97497854 L0.927546853,10.7394161 C0.927546853,11.1018515 1.23961563,11.3967494 1.62317806,11.3967494 L14.3767834,11.3967494 C14.7603844,11.3967494 15.0724531,11.1018333 15.0724531,10.7394161 L15.0724531,1.97499676 C15.0724531,1.61250671 14.7603651,1.31766349 14.3767834,1.31766349 L1.62317806,1.31766349 L1.62317806,1.31764527 Z M15.5362073,15 L0.463773427,15 C0.207634412,15 5.32907052e-14,14.8038023 5.32907052e-14,14.56179 C5.32907052e-14,14.3197412 0.207634412,14.1235617 0.463773427,14.1235617 L15.5362073,14.1235617 C15.7923463,14.1235617 16,14.3197412 16,14.56179 C16,14.8038206 15.7923463,15 15.5362073,15 Z" id="形状"></path>
                        <path d="M11.7383452,5.62169297 L10.9675366,5.53235979 C10.9085576,5.33513775 10.8274425,5.14443609 10.7255729,4.96350318 L11.2040809,4.38495149 C11.3196627,4.24519299 11.2890942,4.02512211 11.1419218,3.8860379 L10.6436262,3.41517078 C10.4964152,3.27608656 10.2634774,3.24722003 10.1155914,3.3564354 L9.52073017,3.79570241 C9.32552797,3.69149711 9.11875868,3.6079522 8.90417207,3.54658276 L8.81229298,2.83889707 C8.78943892,2.66287316 8.60315425,2.5276524 8.39499911,2.5276524 L7.69026485,2.5276524 C7.48210971,2.5276524 7.29582504,2.66287316 7.27295169,2.83889707 L7.18323264,3.53023599 C6.96228944,3.58883647 6.74905499,3.67082234 6.54758128,3.77463567 L5.96415674,3.34378806 C5.81627074,3.2345727 5.58333293,3.26342101 5.43614123,3.40252344 L4.93784564,3.87339057 C4.79067323,4.01247478 4.76010472,4.23254566 4.87566718,4.37230415 L5.3281968,4.91941975 C5.21697768,5.10907911 5.1287641,5.3099923 5.06523049,5.51834567 L4.32797983,5.60377895 C4.14165658,5.6253924 3.99859211,5.8014163 3.99859211,5.99810602 L3.99859211,6.66402271 C3.99857283,6.86069421 4.14165658,7.03673633 4.32797983,7.05831334 L5.0710549,7.14445734 C5.13455772,7.34768104 5.22160217,7.54366178 5.33060756,7.72884066 L4.86228261,8.29507304 C4.74670087,8.43481331 4.77725009,8.65492064 4.9244225,8.7939684 L5.42273738,9.26483553 C5.56994836,9.40397441 5.8028476,9.4328045 5.95075288,9.32357091 L6.55820793,8.87500974 C6.7490992,8.9724128 6.9504409,9.05029853 7.15881641,9.10734525 L7.25405129,9.84109101 C7.27692463,10.0171331 7.46320931,10.1523903 7.67136445,10.1523721 L8.37607942,10.1523721 C8.58421527,10.1523903 8.77051923,10.0171331 8.79339257,9.84109101 L8.88934104,9.10182344 C9.09232934,9.04489428 9.28849708,8.96815966 9.47467491,8.87285933 L10.1022261,9.33629113 C10.2501507,9.4455065 10.4830692,9.41662174 10.630203,9.27750108 L11.1285372,8.80668863 C11.2757675,8.66754975 11.3062781,8.44747887 11.1906964,8.3077386 L10.703741,7.71896334 C10.8059209,7.54375439 10.8885062,7.35896373 10.9501598,7.16758337 L11.7383644,7.07624558 C11.924707,7.05465035 12.0677714,6.87859 12.0677329,6.68190028 L12.0677522,6.01602004 C12.0677522,5.81933032 11.9246877,5.64326997 11.7383452,5.62169297 Z M8.03322999,7.8971741 C7.12307922,7.8971741 6.38526926,7.20000355 6.38526926,6.34002138 C6.38526926,5.48002097 7.12307922,4.78286865 8.03322999,4.78286865 C8.94334219,4.78286865 9.68111358,5.48002097 9.68111358,6.34002138 C9.68111358,7.20002178 8.94334219,7.8971741 8.03322999,7.8971741 Z" id="形状"></path>
                    </g>
                </g>
            </g>
        </g>
    </g>
</svg>