<?xml version="1.0" encoding="UTF-8"?>
<svg width="17px" height="17px" viewBox="0 0 17 17" version="1.1" xmlns="http://www.w3.org/2000/svg" xmlns:xlink="http://www.w3.org/1999/xlink">
    <!-- Generator: Sketch 52.4 (67378) - http://www.bohemiancoding.com/sketch -->
    <title>icon-监控-概览</title>
    <desc>Created with Sketch.</desc>
    <g id="监控管理" stroke="none" stroke-width="1" fill="none" fill-rule="evenodd">
        <g id="2-操作管理-任务管理-任务定制管理" transform="translate(-20.000000, -81.000000)">
            <g id="icon-监控-概览" transform="translate(20.000000, 81.000000)">
                <g id="监控">
                    <rect id="矩形" fill="#000000" opacity="0" x="0" y="0" width="18" height="18"></rect>
                    <path d="M8.91019201,16.90972 C4.4932042,16.9042165 0.916478513,13.320043 0.920162783,8.90305334 C0.923847053,4.48606364 4.50654697,0.907862002 8.92353782,0.909726993 C13.3405287,0.911591983 16.9202056,4.4928178 16.9201599,8.90980904 C16.9188385,11.0328547 16.0741883,13.0684197 14.5720253,14.5686967 C13.0698622,16.0689737 11.0332377,16.9110659 8.91019201,16.90972 Z M8.91019201,1.79980551 C6.03037568,1.79955352 3.43398451,3.53411911 2.3317519,6.19465016 C1.2295193,8.85518121 1.83852005,11.9177101 3.87476862,13.9541368 C5.91101719,15.9905636 8.97349274,16.5998323 11.6341202,15.4978325 C14.2947477,14.3958327 16.0295405,11.7995933 16.0295405,8.919777 C16.0295405,4.98776861 12.8422004,1.80014956 8.91019201,1.79980551 Z M14.4287929,8.98777273 L14.4287929,8.98634873 C14.4287929,8.99168871 14.4279029,8.99649469 14.4279029,9.00121167 C14.4273689,9.00388166 14.4273689,9.00646265 14.4270129,9.00859864 C14.4270129,9.01215863 14.4260339,9.01607461 14.4256779,9.0195456 L14.4242539,9.03227255 L14.4242539,9.03369654 C14.4107428,9.12638602 14.3702577,9.21305132 14.3078424,9.28289555 C14.1908969,9.43348294 14.0633604,9.57481438 13.9353789,9.71365382 C13.2533225,10.4675376 12.4571032,11.1096306 11.5758203,11.6164662 C11.0258189,11.9344806 10.4291481,12.1638562 9.80775342,12.2961565 C9.13600166,12.4303404 8.4433708,12.4198731 7.77598055,12.2654516 C6.60857222,11.9955157 5.55098946,11.3239244 4.62663916,10.5215926 C4.18522961,10.1490143 3.78124327,9.73423748 3.42042699,9.28316254 C3.265478,9.09860452 3.265478,8.82941512 3.42042699,8.6448571 C3.53683852,8.4942697 3.66482001,8.35249327 3.7928015,8.21409882 C4.47476332,7.46037173 5.27097164,6.8185337 6.15227105,6.31208744 C6.70219661,5.9939215 7.29884836,5.76445161 7.92024897,5.63213016 C8.59180248,5.49793951 9.2842296,5.50825477 9.95148784,5.66239004 C11.1189852,5.93250396 12.1764789,6.60445127 13.1008292,7.40678306 C13.5424274,7.77918766 13.9464594,8.1939808 14.3071304,8.6452131 C14.3700071,8.71476235 14.4105877,8.80156571 14.4236309,8.8944121 C14.4234367,8.8948359 14.4234367,8.8953233 14.4236309,8.8957471 L14.4250549,8.90847404 L14.4270129,8.919777 L14.4270129,8.92725297 C14.4276049,8.93215641 14.4279317,8.93708823 14.4279919,8.94202691 C14.4279919,8.94994788 14.4288819,8.95742385 14.4288819,8.96481082 L14.4287929,8.98786173 L14.4287929,8.98777273 Z M8.86569219,6.65028609 C7.7135918,6.65028609 6.77962954,7.64432311 6.77962954,8.87136119 C6.77962954,10.0983993 7.7141258,11.0920803 8.86569219,11.0920803 C10.0172586,11.0920803 10.9522888,10.0979543 10.9522888,8.87136119 C10.9522888,7.6447681 10.0183266,6.65028609 8.86569219,6.65028609 Z M8.86569219,9.98109775 C8.28995349,9.98109775 7.82261636,9.48376774 7.82261636,8.87091619 C7.82261636,8.25806465 8.28968649,7.76082364 8.86569219,7.76082364 C9.44169788,7.76082364 9.90876801,8.25797565 9.90867901,8.87136119 C9.90859001,9.48474674 9.44214288,9.98154275 8.86569219,9.98154275 L8.86569219,9.98109775 Z" id="形状" fill="#333333" fill-rule="nonzero"></path>
                </g>
            </g>
        </g>
    </g>
</svg>