<?xml version="1.0" encoding="UTF-8"?>
<svg width="16px" height="12px" viewBox="0 0 16 12" version="1.1" xmlns="http://www.w3.org/2000/svg" xmlns:xlink="http://www.w3.org/1999/xlink">
    <!-- Generator: Sketch 52.4 (67378) - http://www.bohemiancoding.com/sketch -->
    <title>指标概览</title>
    <desc>Created with Sketch.</desc>
    <g id="-指标管理" stroke="none" stroke-width="1" fill="none" fill-rule="evenodd">
        <g id="1-指标模型管理-指标类型" transform="translate(-21.000000, -84.000000)">
            <g id="侧导航-选中/正常" transform="translate(0.000000, 60.000000)">
                <g id="指标概览-icon" transform="translate(20.000000, 21.000000)">
                    <g>
                        <rect id="矩形" fill="#000000" opacity="0" x="0" y="0" width="18" height="18"></rect>
                        <path d="M9,9 C10.2,9 11.1,10 11.1,11.2 C11.1,12.4 10.1,13.4 9,13.4 C7.9,13.4 6.89999999,12.4 6.89999999,11.2 C6.89999999,10 7.79999999,9 9,9 M9,8.1 C7.4,8.1 5.99999999,9.49999999 5.99999999,11.2 C5.99999999,12.9 7.3,14.3 9,14.3 C10.7,14.3 12,12.9 12,11.2 C12,9.50000001 10.6,8.1 9,8.1" id="形状" fill="#909090" fill-rule="nonzero"></path>
                        <path d="M15.3,8.1 C15.8,9.1 16,10.1 16,11.2 C16,12.3 15.8,13.4 15.3,14.3 L16.2,14.7 C16.7,13.6 17,12.4 17,11.1 C17,9.9 16.7,8.70000001 16.2,7.60000001 L15.3,8.1 Z M2.6,14.1 C2.19999999,13.2 2,12.2 2,11.2 C2,7.2 5.2,4.00000001 9,4.00000001 C10.2,4.00000001 11.3,4.30000001 12.3,4.80000001 L12.7,4.00000001 C11.6,3.40000001 10.3,3.00000001 9,3.00000001 C4.6,3.00000001 1,6.60000001 1,11.1 C1,12.3 1.20000001,13.4 1.7,14.4 L2.6,14.1 Z M15.217,5.95200001 L11.372,9.884 L10.657,9.18499999 L14.502,5.25199999 L15.217,5.95200001 Z" id="形状" fill="#909090" fill-rule="nonzero"></path>
                    </g>
                </g>
            </g>
        </g>
    </g>
</svg>