<?xml version="1.0" standalone="no"?><!DOCTYPE svg PUBLIC "-//W3C//DTD SVG 1.1//EN" "http://www.w3.org/Graphics/SVG/1.1/DTD/svg11.dtd"><svg t="1539066992946" class="icon" style="" viewBox="0 0 1098 1024" version="1.1" xmlns="http://www.w3.org/2000/svg" p-id="7530" xmlns:xlink="http://www.w3.org/1999/xlink" width="214.453125" height="200"><defs><style type="text/css"></style></defs><path d="M548.571429 0C246.418286 0 0 214.674286 0 477.842286c0 153.819429 84.187429 291.035429 214.454857 378.514286L74.971429 1024l282.038857-98.450286c59.684571 19.456 124.196571 30.134857 191.561143 30.134857 302.153143 0 548.571429-214.674286 548.571429-477.842286C1097.142857 214.674286 850.724571 0 548.571429 0zM301.787429 537.161143c-37.229714 0-67.364571-31.232-67.364571-69.705143 0-38.473143 30.134857-69.632 67.364571-69.632 37.156571 0 67.364571 31.158857 67.364571 69.632C369.152 505.929143 338.944 537.161143 301.787429 537.161143zM548.571429 537.161143c-37.229714 0-67.364571-31.232-67.364571-69.705143 0-38.473143 30.134857-69.632 67.364571-69.632 37.229714 0 67.364571 31.158857 67.364571 69.632C615.936 505.929143 585.801143 537.161143 548.571429 537.161143zM795.355429 537.161143c-37.156571 0-67.364571-31.232-67.364571-69.705143 0-38.473143 30.208-69.632 67.364571-69.632 37.229714 0 67.364571 31.158857 67.364571 69.632C862.72 505.929143 832.585143 537.161143 795.355429 537.161143z" p-id="7531"></path></svg>