<?xml version="1.0" standalone="no"?><!DOCTYPE svg PUBLIC "-//W3C//DTD SVG 1.1//EN" "http://www.w3.org/Graphics/SVG/1.1/DTD/svg11.dtd"><svg t="1539057898278" class="icon" style="" viewBox="0 0 1024 1024" version="1.1" xmlns="http://www.w3.org/2000/svg" p-id="2370" xmlns:xlink="http://www.w3.org/1999/xlink" width="200" height="200"><defs><style type="text/css"></style></defs><path d="M793.255709 255.936043c3.853771 1.001817 10.1645 3.237741 19.043728 8.230452 13.585413 7.637957 28.386514 19.164478 41.677215 32.45518 13.290701 13.290701 24.816199 28.091802 32.455179 41.677214 6.609535 11.755742 8.388041 19.007913 8.865925 22.019503-9.754155 46.530756-33.866319 101.08628-69.843718 157.982104-36.173874 57.20691-83.739193 115.88431-137.553842 169.689751-53.806463 53.798277-112.487957 101.352339-169.699984 137.523143-56.883545 35.963073-111.419625 60.068074-157.923775 69.824275-3.015683-0.478907-10.280134-2.261507-22.052249-8.889461-13.602809-7.6574-28.409027-19.206434-41.692564-32.519648-13.250792-13.280468-24.731264-28.063149-32.32522-41.624002-3.934612-7.027044-6.14393-12.444427-7.384177-16.307408 40.7194-38.455847 110.38097-90.677209 150.258188-112.602568 1.655709 0.843204 3.91517 2.102894 6.901177 3.974522 8.481162 5.316076 19.162432 13.217023 31.231306 22.24156 8.27957 6.211469 20.791535 15.598256 30.810726 22.157649l31.505551 20.626783 33.32192-17.543561c62.986543-33.162284 160.949692-131.12441 194.110953-194.110953l17.541515-33.317827-20.62269-31.504528c-6.548136-10.003841-15.942087-22.526039-22.158673-30.813796-9.025561-12.069897-16.927531-22.751167-22.243606-31.233352-1.879813-2.998287-3.142573-5.265934-3.985778-6.922666 6.809079-12.770861 22.641673-41.521672 42.727127-71.862701 34.82311-52.603055 57.241702-72.27407 67.035766-79.149665m-4.590552-64.768119h-10.057053l-9.001002 4.502547c-67.677379 33.913391-146.307204 188.17066-147.05831 189.8233l-4.502547 9.006118v10.051937c0 23.711028 14.705933 44.417629 40.514739 78.930677 5.854335 7.803733 14.406105 19.208481 19.809161 27.462468-26.860764 51.017954-116.29568 140.452869-167.314657 167.313634-8.253988-5.40408-19.658735-13.954827-27.461445-19.808138-34.514071-25.808806-55.220672-40.514739-78.9317-40.514739h-10.051937l-9.006118 4.502547c-46.820352 23.410176-135.203308 89.434915-181.873234 135.954415l-12.452613 12.452613v17.709337c-0.150426 67.226101 103.539144 170.915671 170.615843 170.915671h4.201695l4.202718-0.901533c228.990345-45.769416 542.461779-359.090425 588.230172-588.231195l0.901533-4.202718v-4.201696c0-67.076698-103.68957-170.765245-170.765245-170.765245zM443.205171 64.021106l-0.311085 0.045025C246.958578 92.232634 92.015693 247.266593 63.981197 443.244057v5.116531c0 17.662265 14.3181 31.980365 31.980365 31.980365 17.662265 0 31.980365-14.3181 31.980365-31.980365l0.737804-5.116531a379.667066 379.667066 0 0 1 24.849968-85.400019c19.325138-45.691645 47.00557-86.739527 82.270748-122.004705s76.314083-62.945611 122.004705-82.270749a379.667066 379.667066 0 0 1 85.400019-24.849967l4.093225-0.737804c17.662265 0 31.980365-14.3181 31.980365-31.980365 0-17.662265-14.3181-31.980365-31.980365-31.980366h-4.093225z" p-id="2371"></path><path d="M262.99481 450.345802c-4.264117 14.83794-15.047718 31.018457-32.709983 31.018457-17.662265 0-31.980365-14.3181-31.980365-31.980365 0-0.536212 0.014326-1.069355 0.039909-1.599428h-0.039909c0.01842-0.093121 0.039909-0.185218 0.059351-0.278339a31.80845 31.80845 0 0 1 2.196015-9.916861c27.434839-115.538433 117.4162-207.037357 232.30995-236.114602 4.687766-1.362021 9.28855-3.12927 14.427594-3.12927 0.134053 0 0.26606 0.008186 0.400113 0.010233l0.047072-0.010233v0.011256c17.455557 0.240477 31.533181 14.45727 31.533181 31.969109s-17.134239 29.043477-30.473036 33.344433l-1.060145 0.293688c-89.902566 23.139-160.674423 93.919043-183.814446 183.821609l-0.935301 2.560313zM447.74558 330.797032c-9.147334 0-16.519232 4.818749-24.233937 9.057283-35.978423 18.384719-64.939011 47.961338-83.325777 83.937714-4.529153 6.934946-9.434883 14.843056-9.434883 23.992437 0 17.662265 14.3181 31.980365 31.980365 31.980365s26.629497-19.307741 31.980365-31.980365c11.233855-19.415189 33.617655-41.794895 53.034891-53.026704 11.497868-7.14677 31.980365-14.3181 31.980365-31.980365s-14.319124-31.980365-31.981389-31.980365z" p-id="2372"></path></svg>