<?xml version="1.0" encoding="utf-8"?>
<!-- Svg Vector Icons : http://www.sfont.cn -->
<!DOCTYPE svg PUBLIC "-//W3C//DTD SVG 1.1//EN" "http://www.w3.org/Graphics/SVG/1.1/DTD/svg11.dtd">
<svg version="1.1" xmlns="http://www.w3.org/2000/svg" xmlns:xlink="http://www.w3.org/1999/xlink" x="0px" y="0px" viewBox="0 0 1000 1000" enable-background="new 0 0 1000 1000" xml:space="preserve">
<metadata> Svg Vector Icons : http://www.sfont.cn </metadata>
<g><path d="M247.2,10h506c40.5,0,77.7,16.8,105,43.5c26.5,27.3,43.5,64.3,43.5,105.3v337.7c0,81.8-67,148.8-148.5,148.8h-218v109.2c19,6,36,16.8,49.7,30c13.8,13.5,23.5,30,29.7,48.5h308c19.5,0,35,15.7,35,35c0,19.5-15.5,35.7-35,35.7H615.5c-5.8,19.3-16.3,36.8-30.5,51c-21.3,21.7-51.8,35.2-85,35.2c-33.2,0-63.2-13.5-85.3-35.2c-14-14.3-24.5-31.8-30-51h-307c-19.7,0-35.5-16.2-35.5-35.7c0-19.3,15.8-35,35.5-35h308c5.5-18.5,16-35,29-48.5c14-13.2,31-24,50-30V645.3H247.2c-81.5,0-148.7-67-148.7-148.8l0-337.7C98.5,77,165.8,10,247.2,10L247.2,10z M168.8,447.3L168.8,447.3H831V158.8c0-21.8-8.7-41-23-55.5c-14-14-33.3-22.5-54.8-22.5h-506c-43,0-78.5,34.5-78.5,78V447.3L168.8,447.3z M831,489.7L831,489.7H168.8v6.8c0,43,35.5,78.5,78.5,78.5h506c42.7,0,77.7-35.5,77.7-78.5L831,489.7L831,489.7z M555.2,814.5L555.2,814.5c-14-14.3-33.5-23-55.2-23c-21.3,0-41,8.7-55.2,23c-14,14-22.8,33.7-22.8,55c0,21.8,8.8,41.3,22.8,55.3c14.3,14.5,34,22.8,55.2,22.8c21.8,0,41.3-8.3,55.2-22.8c14-14,23-33.5,23-55.3C578.2,848.2,569.2,828.5,555.2,814.5L555.2,814.5z"/></g>
</svg>